<svg height="512pt" viewBox="-1 0 512 512" width="512pt" xmlns="http://www.w3.org/2000/svg"><path d="m14.960938 16.890625h118.1875v-14.960937h-133.148438v86.273437h14.960938zm0 0"/><path d="m14.960938 103.164062h-14.960938v332.621094h51.363281v-14.960937h-36.402343zm0 0"/><path d="m84.777344 490.226562v-430.984374l106.390625-24.640626-3.375-14.574218-117.976563 27.320312v464.652344l71.179688-27.347656-5.363282-13.964844zm0 0"/><path d="m259.316406 18.820312v33.476563h14.960938v-52.296875l-71.910156 16.652344 3.375 14.574218zm0 0"/><path d="m402.4375 19.882812h-1.28125v14.960938h1.28125c12.375 0 22.441406 10.066406 22.441406 22.441406v119.683594c0 12.375-10.066406 22.441406-22.441406 22.441406h-59.84375c-12.371094 0-22.4375-10.066406-22.4375-22.441406v-119.683594c0-12.375 10.066406-22.441406 22.4375-22.441406h43.601562v-14.960938h-43.601562c-20.621094 0-37.398438 16.777344-37.398438 37.402344v119.683594c0 20.625 16.777344 37.402344 37.398438 37.402344h22.441406v21.441406c0 6.875-5.589844 12.46875-12.464844 12.46875h-78.292968v-66.324219h-14.960938v241.207031l-109.71875 42.15625 5.367188 13.964844 119.3125-45.839844v-170.203124h78.292968c15.121094 0 27.425782-12.304688 27.425782-27.429688v-21.441406h22.441406c20.625 0 37.402344-16.777344 37.402344-37.402344v-119.683594c0-20.625-16.777344-37.402344-37.402344-37.402344zm0 0"/><path d="m409.917969 59.777344h-74.804688v44.882812h74.804688zm-14.960938 29.921875h-44.882812v-14.960938h44.882812zm0 0"/><path d="m489.917969 69.542969-10.578125 10.578125c9.902344 9.902344 15.355468 23.042968 15.355468 37.003906 0 13.964844-5.457031 27.105469-15.355468 37.007812l10.578125 10.578126c12.726562-12.726563 19.734375-29.628907 19.734375-47.585938 0-17.953125-7.007813-34.855469-19.734375-47.582031zm0 0"/><path d="m468.777344 90.679688-10.578125 10.578124c4.238281 4.238282 6.574219 9.875 6.574219 15.867188 0 5.996094-2.335938 11.628906-6.574219 15.867188l10.578125 10.578124c7.066406-7.0625 10.953125-16.453124 10.953125-26.445312s-3.886719-19.382812-10.953125-26.445312zm0 0"/><path d="m265.695312 80.121094-10.578124-10.578125c-12.726563 12.726562-19.738282 29.625-19.738282 47.582031s7.007813 34.859375 19.738282 47.585938l10.578124-10.578126c-9.902343-9.902343-15.355468-23.042968-15.355468-37.007812 0-13.960938 5.453125-27.101562 15.355468-37.003906zm0 0"/><path d="m276.253906 143.574219 10.578125-10.582031c-4.238281-4.234376-6.574219-9.871094-6.574219-15.867188 0-5.992188 2.335938-11.628906 6.574219-15.867188l-10.578125-10.578124c-7.066406 7.066406-10.953125 16.457031-10.953125 26.449218 0 9.988282 3.886719 19.378906 10.953125 26.445313zm0 0"/><path d="m127.164062 259.25c-12.375 0-22.441406 10.070312-22.441406 22.441406 0 12.375 10.066406 22.441406 22.441406 22.441406s22.441407-10.066406 22.441407-22.441406c0-12.371094-10.066407-22.441406-22.441407-22.441406zm0 29.921875c-4.125 0-7.480468-3.355469-7.480468-7.480469s3.355468-7.480468 7.480468-7.480468 7.480469 3.355468 7.480469 7.480468-3.355469 7.480469-7.480469 7.480469zm0 0"/><path d="m99.738281 74.238281h14.957031v39.894531h-14.957031zm0 0"/><path d="m99.738281 129.09375h14.957031v14.960938h-14.957031zm0 0"/><path d="m394.957031 159.515625h14.960938v14.960937h-14.960938zm0 0"/><path d="m335.113281 159.515625h14.960938v14.960937h-14.960938zm0 0"/><path d="m365.035156 159.515625h14.960938v14.960937h-14.960938zm0 0"/><path d="m394.957031 129.59375h14.960938v14.960938h-14.960938zm0 0"/><path d="m365.035156 129.59375h14.960938v14.960938h-14.960938zm0 0"/><path d="m335.113281 129.59375h14.960938v14.960938h-14.960938zm0 0"/></svg>